<?xml version="1.0" standalone="no"?>
<!DOCTYPE svg PUBLIC "-//W3C//DTD SVG 20010904//EN"
 "http://www.w3.org/TR/2001/REC-SVG-20010904/DTD/svg10.dtd">
<svg version="1.0" xmlns="http://www.w3.org/2000/svg"
 width="1280.000000pt" height="800.000000pt" viewBox="0 0 1280.000000 800.000000"
 preserveAspectRatio="xMidYMid meet">
<metadata>
Created by potrace 1.15, written by Peter Selinger 2001-2017
</metadata>
<g transform="translate(0.000000,800.000000) scale(0.100000,-0.100000)"
fill="#000000" stroke="none">
<path d="M2735 6706 c-169 -25 -373 -85 -487 -142 -52 -26 -73 -30 -62 -12 4
7 3 8 -5 4 -6 -4 -9 -11 -6 -16 7 -11 -123 -82 -136 -74 -5 3 -8 0 -7 -8 2 -7
-5 -12 -14 -12 -10 1 -16 -2 -15 -6 2 -8 -77 -70 -89 -70 -4 0 0 8 7 18 11 14
10 13 -9 -2 -24 -21 -29 -31 -9 -21 6 4 -1 -5 -16 -19 -16 -15 -33 -23 -39
-20 -6 4 -8 2 -4 -4 7 -11 -63 -74 -74 -67 -4 3 -15 -4 -25 -15 -10 -11 -14
-20 -10 -20 5 0 -2 -11 -15 -25 -12 -13 -26 -22 -30 -20 -4 2 -18 -8 -31 -23
-22 -25 -22 -25 -1 -8 12 11 22 15 22 9 0 -10 -48 -58 -58 -58 -4 0 -6 -4 -4
-9 5 -14 -19 -36 -32 -29 -6 3 -8 3 -4 -2 10 -10 -10 -47 -22 -40 -5 3 -12 0
-16 -6 -4 -8 -3 -9 4 -5 7 4 12 3 12 -2 0 -13 -25 -33 -32 -26 -5 5 -30 -26
-53 -65 -5 -10 -4 -12 3 -7 15 9 15 1 1 -25 -5 -11 -14 -17 -19 -14 -5 3 -12
0 -16 -6 -4 -8 -3 -9 4 -5 18 11 15 3 -39 -105 -55 -110 -118 -291 -143 -411
-75 -364 -29 -756 128 -1093 25 -54 43 -102 39 -108 -3 -5 -1 -7 5 -3 12 7 65
-81 56 -95 -3 -5 -1 -8 4 -7 6 2 24 -16 41 -39 33 -45 38 -59 19 -47 -7 4 -8
3 -4 -5 4 -6 11 -9 16 -6 11 7 33 -22 25 -35 -4 -6 -3 -9 2 -8 13 5 234 -228
225 -237 -4 -5 -1 -5 6 -1 14 9 55 -21 47 -34 -3 -4 3 -14 12 -21 12 -10 14
-10 9 -1 -4 6 -3 12 2 12 13 0 33 -25 26 -32 -3 -3 3 -5 13 -4 9 0 18 -4 18
-11 0 -7 7 -18 15 -25 12 -11 12 -11 1 5 -8 10 -9 17 -3 17 11 0 27 -19 27
-32 0 -3 4 -10 9 -15 5 -5 6 -3 2 5 -9 15 -1 15 25 1 11 -5 17 -14 14 -18 -2
-5 3 -8 13 -7 9 0 16 -5 14 -12 -1 -8 2 -11 7 -7 14 8 73 -23 66 -35 -3 -5 0
-12 6 -16 8 -5 9 -3 4 5 -5 9 -2 12 11 9 11 -2 18 -10 16 -17 -1 -7 2 -10 8
-6 5 3 40 -7 77 -23 38 -16 84 -35 103 -42 19 -7 39 -17 44 -21 4 -4 -13 -90
-39 -191 -26 -100 -58 -226 -70 -278 -31 -129 -132 -507 -139 -523 -3 -6 -4 6
-1 28 4 34 3 36 -6 16 -5 -14 -7 -37 -4 -52 4 -18 -8 -83 -33 -176 -22 -81
-52 -200 -67 -263 -15 -63 -86 -341 -156 -616 -71 -276 -129 -510 -129 -519 0
-9 28 -51 63 -92 57 -68 65 -74 92 -68 16 3 31 9 35 14 3 5 29 121 59 258 30
136 55 249 56 251 1 1 123 -75 271 -169 148 -94 288 -183 312 -198 l43 -26 -5
-70 c-3 -38 -8 -135 -12 -215 -6 -143 -5 -145 18 -166 47 -43 148 -104 171
-104 16 0 47 24 102 80 l78 80 -8 264 -7 263 74 31 c40 17 139 60 221 95 81
36 147 64 147 63 1 0 11 -75 23 -165 l23 -165 31 -13 31 -12 71 87 c39 48 71
97 71 108 0 12 -35 230 -79 485 -43 255 -88 523 -99 594 -28 179 -97 582 -127
745 -23 124 -95 553 -95 564 0 3 19 10 43 16 23 6 84 24 134 41 51 17 98 27
104 23 7 -4 9 -3 5 4 -8 13 25 24 50 16 13 -4 15 -3 7 3 -15 11 133 87 149 77
6 -4 8 -3 5 4 -4 5 14 22 40 37 27 15 71 45 100 66 56 42 73 49 52 22 -13 -16
-12 -17 3 -4 10 7 16 17 13 21 -7 12 36 41 48 33 6 -3 7 -1 3 5 -7 12 70 79
86 74 5 -1 7 1 4 6 -3 5 7 20 22 33 l27 24 -20 -25 -20 -25 22 19 c12 10 21
22 20 26 -4 13 116 149 126 143 6 -3 7 -1 3 6 -9 13 12 44 24 36 4 -3 7 3 6
12 0 10 4 18 11 18 6 0 15 4 20 9 5 5 3 6 -4 2 -17 -10 -16 0 4 30 10 16 19
21 23 14 5 -8 9 -6 13 5 5 10 3 14 -4 9 -7 -4 -10 -1 -7 7 3 8 11 13 17 11 7
-1 10 2 6 7 -6 11 51 118 61 113 3 -2 9 0 12 4 4 4 1 4 -5 0 -17 -10 -16 -2 6
42 30 59 88 220 110 307 38 143 52 263 52 435 0 245 -32 423 -117 637 -48 121
-50 128 -32 117 7 -4 8 -3 4 5 -4 6 -11 9 -16 6 -5 -3 -21 17 -35 44 -27 55
-30 65 -15 56 6 -3 7 1 3 10 -4 11 -8 13 -13 6 -9 -16 -91 115 -84 137 4 11 3
13 -3 5 -11 -16 -67 52 -57 69 4 6 3 8 -3 5 -11 -7 -43 24 -46 45 -2 7 -7 14
-12 16 -20 5 -164 156 -158 165 4 6 1 7 -6 3 -13 -9 -54 22 -46 34 2 4 -5 16
-18 26 -18 16 -19 16 -8 2 7 -10 9 -18 3 -18 -15 0 -33 26 -24 35 4 5 1 5 -6
1 -14 -9 -45 12 -37 24 3 5 0 12 -6 16 -8 4 -9 3 -5 -4 10 -16 0 -15 -29 4
-14 9 -23 20 -20 24 3 5 0 12 -6 16 -8 4 -9 3 -5 -4 12 -19 1 -15 -91 38 -49
28 -123 65 -165 82 -42 17 -74 36 -71 41 3 6 1 7 -5 3 -6 -3 -57 7 -114 24
-57 16 -143 37 -193 46 -120 22 -411 27 -530 10z m473 -121 c178 -27 430 -107
401 -127 -10 -6 -7 -7 9 -3 16 5 47 -7 110 -41 113 -61 204 -123 197 -134 -3
-5 0 -12 6 -16 8 -4 9 -3 5 4 -13 22 7 12 51 -24 24 -19 41 -39 38 -43 -2 -4
10 -21 28 -37 31 -29 32 -29 8 -1 -14 15 -20 27 -15 27 17 0 135 -126 132
-141 -2 -8 2 -13 9 -12 16 3 54 -47 46 -61 -3 -6 -3 -8 2 -4 9 9 35 -9 35 -24
0 -5 -6 -6 -12 -2 -8 4 -10 3 -5 -2 5 -5 14 -9 19 -9 6 0 13 -6 16 -14 3 -9 0
-11 -8 -6 -9 5 -11 4 -6 -4 4 -6 11 -9 16 -6 5 3 16 -5 24 -17 19 -26 21 -42
5 -32 -8 4 -8 0 0 -15 14 -25 22 -28 15 -3 -12 37 28 -24 72 -111 233 -460
243 -974 29 -1433 -48 -104 -143 -256 -155 -249 -4 3 -7 -3 -6 -13 0 -9 -5
-16 -12 -14 -8 1 -11 -1 -8 -6 7 -12 -23 -54 -34 -47 -4 3 -14 -3 -21 -12 -10
-12 -10 -14 -1 -9 6 4 12 3 12 -2 0 -12 -45 -53 -52 -47 -3 3 -11 -1 -18 -10
-7 -8 -9 -15 -4 -15 4 0 -3 -11 -16 -25 -12 -13 -27 -22 -32 -19 -5 3 -7 0 -6
-8 2 -7 -3 -12 -10 -10 -8 1 -11 -1 -8 -6 8 -14 -51 -65 -65 -57 -7 5 -10 4
-6 -2 9 -15 -29 -47 -45 -37 -7 4 -10 4 -6 -1 9 -9 -9 -35 -24 -35 -5 0 -6 6
-2 13 4 6 4 9 0 5 -4 -3 -8 -10 -8 -15 0 -12 -19 -33 -30 -33 -6 0 -4 8 3 18
13 15 12 16 -3 3 -10 -7 -15 -17 -13 -22 3 -4 -3 -13 -14 -18 -26 -14 -34 -14
-25 1 4 7 3 8 -5 4 -6 -4 -9 -11 -6 -16 8 -12 -33 -33 -47 -24 -7 4 -8 3 -4
-4 10 -17 -129 -85 -157 -77 -15 4 -18 4 -8 -3 9 -7 -6 -16 -55 -35 -110 -41
-224 -71 -233 -61 -4 5 -18 70 -30 144 -20 121 -38 222 -100 585 -36 208 -36
192 -4 199 54 14 174 77 228 121 60 49 79 58 49 23 l-19 -23 22 19 c13 10 20
22 18 26 -6 9 20 32 27 25 3 -3 13 5 24 17 l19 23 -22 -19 c-13 -11 -23 -15
-23 -9 0 13 35 45 42 38 3 -3 11 2 19 12 9 11 10 14 2 9 -19 -11 -16 2 8 35
39 55 88 175 105 259 37 182 -6 398 -107 542 -24 33 -24 45 -1 27 15 -13 16
-12 3 4 -8 9 -16 15 -19 12 -7 -7 -42 25 -42 38 0 5 8 3 18 -4 15 -13 16 -12
3 4 -8 9 -16 15 -19 12 -8 -8 -42 27 -36 37 3 4 0 7 -8 6 -7 -2 -12 2 -11 9 1
6 -5 17 -15 25 -15 12 -16 11 -3 -4 7 -10 10 -18 6 -18 -10 0 -70 52 -70 61 0
4 -4 11 -9 16 -5 5 -6 2 -1 -6 5 -9 3 -12 -6 -9 -8 3 -14 10 -14 15 0 6 -4 15
-9 20 -5 5 -6 3 -2 -4 10 -18 7 -17 -65 17 -229 106 -496 87 -701 -49 -67 -45
-77 -49 -57 -23 13 15 12 16 -3 3 -10 -7 -16 -16 -13 -20 2 -4 -18 -30 -46
-57 -27 -27 -61 -66 -76 -86 -14 -21 -29 -35 -34 -33 -4 3 -11 0 -15 -6 -4 -8
-3 -9 4 -5 18 11 15 1 -18 -64 -101 -200 -97 -458 11 -658 42 -78 45 -87 29
-77 -16 10 -11 -1 7 -16 15 -12 16 -12 8 1 -8 13 -7 13 8 1 20 -16 23 -36 5
-25 -9 5 -8 2 1 -9 8 -10 16 -15 19 -12 8 8 102 -87 96 -96 -2 -4 1 -11 7 -15
8 -4 9 -3 5 4 -11 18 10 14 25 -5 10 -11 10 -14 2 -9 -19 11 -16 1 4 -15 14
-12 16 -12 9 0 -6 9 -4 12 5 9 8 -3 14 -10 14 -16 0 -5 4 -14 9 -19 5 -5 6 -3
2 5 -4 6 -5 12 -1 12 5 0 105 -48 112 -54 2 -2 -73 -300 -163 -641 -31 -121
-59 -232 -62 -247 -4 -26 -5 -26 -41 -13 -90 32 -142 58 -129 66 8 5 2 8 -17
6 -20 -1 -29 2 -27 11 1 8 -2 11 -7 8 -5 -3 -17 -3 -26 0 -13 6 -14 9 -3 16
10 7 8 8 -5 4 -23 -8 -80 21 -71 36 4 7 3 8 -4 4 -14 -8 -124 62 -117 74 3 5
0 12 -6 16 -8 4 -9 3 -5 -4 4 -7 3 -12 -2 -12 -13 0 -43 35 -36 42 3 3 0 9 -7
14 -8 4 -10 3 -5 -4 4 -7 3 -12 -2 -12 -12 0 -43 35 -37 42 3 3 -5 13 -17 24
-18 15 -20 16 -9 2 8 -11 9 -18 3 -18 -18 0 -193 194 -187 208 3 7 1 11 -4 8
-13 -8 -63 62 -55 76 4 6 3 8 -3 5 -13 -8 -48 43 -112 165 -64 121 -112 254
-147 403 -26 112 -28 135 -29 340 0 191 3 234 23 327 35 166 118 393 144 393
7 0 13 12 13 26 1 14 20 58 43 97 40 67 62 93 48 56 -3 -9 -2 -12 5 -9 6 4 8
14 5 22 -7 18 33 75 47 66 6 -4 7 -1 3 6 -9 14 22 53 35 46 4 -3 11 0 15 6 4
8 3 9 -4 5 -7 -4 -12 -3 -12 1 0 14 85 94 93 88 4 -3 5 -2 2 2 -6 8 94 113
108 113 4 0 5 -6 1 -12 -5 -9 -2 -8 9 1 10 8 15 16 12 19 -6 7 15 32 27 32 5
0 6 -6 2 -12 -4 -8 -3 -10 2 -5 5 5 9 12 9 15 0 13 16 32 26 32 6 0 7 -6 3
-12 -5 -9 -2 -9 9 1 20 16 23 26 5 15 -9 -5 -9 -2 1 9 15 19 36 23 25 5 -4 -7
-3 -8 5 -4 6 4 9 11 6 16 -9 15 146 101 170 94 14 -4 16 -2 7 4 -29 20 251
124 423 156 123 23 120 23 288 25 95 0 196 -5 255 -14z m-107 -1071 c70 -21
131 -52 124 -64 -3 -5 0 -12 6 -16 8 -5 9 -3 4 6 -5 8 -3 11 6 8 8 -3 14 -10
14 -16 0 -6 7 -17 15 -24 12 -11 12 -11 1 5 -25 32 3 17 46 -25 42 -41 60 -74
26 -47 -16 13 -17 12 -5 -3 8 -10 19 -16 25 -15 15 3 63 -86 83 -152 22 -77
20 -220 -4 -292 -27 -75 -51 -121 -62 -114 -5 3 -12 0 -16 -6 -4 -8 -3 -9 4
-5 26 16 9 -15 -34 -63 -41 -45 -77 -70 -58 -39 4 7 3 8 -5 4 -6 -4 -9 -11 -6
-16 3 -5 -5 -16 -17 -24 -26 -19 -42 -21 -32 -4 4 7 3 8 -5 4 -6 -4 -9 -12 -5
-17 6 -10 -84 -54 -93 -46 -5 6 -43 212 -43 238 0 9 7 20 16 23 13 5 14 4 6
-7 -8 -9 -9 -27 -2 -58 l9 -44 -4 46 c-2 27 1 51 7 57 7 7 8 12 3 12 -4 0 0 9
10 20 10 11 23 17 29 13 6 -3 8 -3 4 1 -3 4 5 31 18 59 37 80 27 193 -21 247
-9 10 -14 23 -11 28 3 5 -7 20 -22 33 -14 13 -20 16 -13 7 18 -24 12 -23 -44
9 -40 22 -61 26 -125 27 -43 1 -76 -2 -74 -5 2 -3 -8 -11 -22 -18 -34 -15 -43
-13 -20 4 11 8 15 15 9 15 -6 0 -16 -7 -23 -15 -7 -8 -9 -15 -4 -15 4 0 -8
-17 -28 -37 -90 -92 -96 -229 -17 -332 10 -13 16 -28 12 -34 -3 -6 -1 -7 6 -3
6 4 18 3 25 -3 11 -10 9 -31 -16 -124 -16 -62 -31 -113 -33 -115 -7 -7 -65 29
-60 38 3 5 0 12 -6 16 -8 4 -9 3 -5 -4 11 -19 -9 -14 -27 6 -10 10 -14 22 -10
27 5 4 3 5 -4 1 -14 -7 -55 33 -47 46 3 5 0 7 -7 6 -16 -4 -75 93 -95 157 -25
78 -29 199 -9 275 19 73 67 170 98 197 11 10 17 12 13 6 -13 -23 -1 -14 39 29
22 23 31 36 20 28 -20 -15 -20 -14 -1 8 20 23 42 31 30 10 -4 -8 -3 -10 2 -5
5 5 9 14 9 20 0 5 6 12 14 15 9 3 11 0 6 -8 -5 -9 -4 -11 4 -6 6 4 9 11 6 16
-6 10 47 36 115 56 64 18 205 17 271 -2z m-247 -1207 c6 -17 -8 -207 -14 -207
-5 0 -7 30 -5 68 4 66 0 57 -11 -26 -5 -40 -8 -43 -32 -42 -52 4 -46 -3 8 -10
l55 -7 -57 -1 c-32 -1 -58 0 -58 2 0 2 11 53 25 114 14 61 25 114 25 118 0 6
62 -2 64 -9z m-23 -555 c-6 -94 -11 -189 -11 -212 l0 -40 -106 0 c-96 0 -105
2 -100 18 2 9 28 123 56 252 28 129 53 242 56 249 3 11 21 -2 60 -40 l55 -56
-10 -171z m278 36 c28 -223 34 -287 22 -243 l-9 30 -1 -27 c-1 -27 -3 -28 -58
-30 -58 -2 -57 -2 17 -8 l75 -6 -77 -2 -78 -2 0 118 c0 66 -3 159 -6 208 l-6
89 44 27 c23 15 46 28 49 28 3 0 16 -82 28 -182z m-468 -512 c41 -8 96 -18
122 -21 l49 -6 -6 -37 c-3 -20 -8 -128 -12 -239 l-6 -203 -170 0 -170 0 5 28
c9 49 110 492 113 492 1 0 35 -6 75 -14z m548 -98 c7 -46 17 -117 22 -158 14
-103 29 -201 36 -227 5 -23 5 -23 -116 -23 l-121 0 0 194 c0 106 -3 214 -6
240 -6 37 -4 45 7 41 11 -3 123 6 160 14 4 0 12 -36 18 -81z m-411 -490 c1 -5
2 -35 2 -68 0 -54 -3 -62 -22 -69 -18 -7 -39 0 -98 31 -84 45 -109 64 -70 53
19 -5 21 -4 10 4 -8 6 -22 9 -30 6 -8 -2 -38 8 -67 23 l-52 27 162 0 c89 0
163 -3 165 -7z m487 -70 c6 -38 48 -348 70 -518 8 -63 15 -115 15 -115 0 0
-72 1 -159 3 l-160 3 -6 52 c-3 29 -5 158 -3 287 l3 234 110 42 c61 24 113 43
117 43 4 1 10 -14 13 -31z m-795 -23 c53 -27 65 -41 28 -30 -20 5 -21 4 -5 -5
9 -6 21 -8 27 -5 10 6 115 -43 107 -51 -3 -3 -16 -1 -29 6 -22 11 -22 10 -3
-5 11 -8 25 -13 33 -10 16 6 75 -23 68 -34 -3 -5 13 -5 35 -1 l41 8 -6 -147
c-4 -80 -9 -188 -12 -238 l-6 -93 -234 0 c-181 0 -234 3 -234 13 0 23 132 617
137 617 2 0 26 -11 53 -25z m274 -801 c-1 -64 -7 -121 -12 -126 -8 -8 -44 11
-316 176 l-110 66 221 0 220 0 -3 -116z m576 112 c0 -2 -33 -17 -72 -32 -40
-15 -101 -40 -136 -56 -78 -35 -97 -36 -88 -5 3 12 6 39 6 60 l0 37 145 0 c80
0 145 -2 145 -4z m-973 -109 c54 -30 156 -88 226 -130 71 -43 137 -77 148 -77
17 0 18 -7 14 -77 -3 -43 -8 -131 -11 -195 l-6 -118 -312 0 -313 0 58 263 c59
263 89 387 95 387 2 0 47 -24 101 -53z m1072 -282 c23 -170 41 -313 41 -318 0
-4 -96 -6 -212 -5 l-213 3 0 258 0 258 115 46 c174 68 214 82 221 75 4 -4 25
-146 48 -317z m-708 -510 c-2 -66 -6 -137 -9 -157 l-7 -38 -245 156 c-135 86
-247 158 -249 160 -3 3 112 3 254 2 l258 -3 -2 -120z m734 104 c-11 -5 -107
-47 -212 -93 l-193 -84 0 94 0 94 213 -1 c140 0 205 -4 192 -10z"/>
</g>
</svg>
